<?xml version="1.0" standalone="no"?>
<!DOCTYPE svg PUBLIC "-//W3C//DTD SVG 20010904//EN"
 "http://www.w3.org/TR/2001/REC-SVG-20010904/DTD/svg10.dtd">
<svg version="1.0" xmlns="http://www.w3.org/2000/svg"
 width="1254.000000pt" height="1254.000000pt" viewBox="0 0 1254.000000 1254.000000"
 preserveAspectRatio="xMidYMid meet">

<g transform="translate(0.000000,1254.000000) scale(0.100000,-0.100000)"
fill="#000000" stroke="none">
<path d="M3028 10930 c-278 -33 -527 -155 -723 -355 -197 -200 -318 -459 -346
-740 -6 -65 -9 -1350 -6 -3650 l3 -3550 21 -85 c64 -257 177 -456 349 -620
167 -157 340 -249 579 -307 65 -16 299 -18 3305 -21 2338 -2 3262 0 3334 8
263 30 510 151 701 344 152 153 254 330 313 543 l27 98 2 3330 3 3330 -133
140 c-163 173 -570 569 -1407 1368 l-185 177 -2885 -1 c-1587 -1 -2915 -5
-2952 -9z m6390 -824 c326 -418 701 -902 834 -1075 133 -172 257 -332 276
-355 l35 -41 -164 -3 c-90 -1 -410 -1 -710 0 l-546 3 -85 42 c-138 69 -236
194 -267 341 -8 37 -11 340 -10 980 l0 927 22 -29 c12 -16 289 -371 615 -790z
m-3358 -4036 l0 -2360 -835 0 -835 0 0 2360 0 2360 835 0 835 0 0 -2360z"/>
</g>
</svg>
